<?xml version="1.0" encoding="UTF-8"?>
<svg width="20px" height="20px" viewBox="0 0 20 20" version="1.1" xmlns="http://www.w3.org/2000/svg" xmlns:xlink="http://www.w3.org/1999/xlink">
    <!-- Generator: sketchtool 55.2 (78181) - https://sketchapp.com -->
    <title>197923CB-523B-4637-AEC7-BC71580CF379</title>
    <desc>Created with sketchtool.</desc>
    <g id="Page-1" stroke="none" stroke-width="1" fill="none" fill-rule="evenodd">
        <g id="create-group" transform="translate(-230.000000, -420.000000)" fill="#A2A2A2" fill-rule="nonzero">
            <g id="secret" transform="translate(230.000000, 420.000000)">
                <g id="icon_secret">
                    <g id="eye-off">
                        <path d="M2.14534541,10.5895621 C2.62432263,11.3312042 3.19020739,12.0733481 3.83711452,12.7633823 C5.64682715,14.6937423 7.71233573,15.8333332 9.9863777,15.8334445 C11.5994533,15.8070715 13.161771,15.2652577 14.4448188,14.2872512 C14.8108448,14.008247 15.3337451,14.0787921 15.6127494,14.444818 C15.8917536,14.810844 15.8212085,15.3337442 15.4551826,15.6127485 C13.8892135,16.8064123 11.9823936,17.4677 9.99999993,17.4999998 C7.1834983,17.4999998 4.71775667,16.1395907 2.62121912,13.9032841 C1.90093868,13.1349851 1.27541714,12.314629 0.74527972,11.4937711 C0.424972737,10.9978119 0.205117432,10.6069581 0.0879773449,10.3726779 C-0.0331156672,10.1304919 -0.0289912672,9.84457051 0.0990369464,9.60597806 C1.19179483,7.5695224 2.7074239,5.79030578 4.54424944,4.38768548 C4.9100357,4.10836704 5.43299639,4.17846305 5.71231484,4.54424928 C5.9916333,4.91003551 5.92153729,5.43299617 5.55575103,5.71231461 C4.02656224,6.88002008 2.74550463,8.33865431 1.78546364,10.0026561 C1.89000105,10.1832884 2.01006119,10.3800897 2.14534541,10.5895621 Z M17.8546539,9.41043338 C17.3756766,8.66878884 16.8097918,7.9266425 16.1628846,7.23660602 C14.3531721,5.30623995 12.2876638,4.16664562 9.99807123,4.16664339 C9.47351867,4.1654294 8.95062712,4.22519313 8.4399275,4.34473447 C7.99180299,4.44962863 7.54349277,4.17138547 7.43859861,3.72326097 C7.33370445,3.27513646 7.61194762,2.82682626 8.06007214,2.7219321 C8.69654901,2.57294961 9.34820921,2.49846831 9.99999983,2.49993461 C12.8165026,2.49993461 15.2822443,3.86039247 17.3787818,6.09670608 C18.0990621,6.86500748 18.7245835,7.68536601 19.2547208,8.50622636 C19.5750277,9.00218698 19.794883,9.39304195 19.912023,9.62732274 C20.0329044,9.8690864 20.0290167,10.1544624 19.901594,10.3928433 C19.3684004,11.3903362 18.7325211,12.3294358 18.0042967,13.1948703 C17.7079754,13.5470237 17.1822827,13.5922845 16.8301293,13.2959632 C16.4779759,12.9996419 16.432715,12.4739493 16.7290363,12.1217958 C17.2865936,11.4591851 17.7838312,10.7484565 18.2149866,9.9981205 C18.1103436,9.81727445 17.9901327,9.62020764 17.8546539,9.41043338 Z M11.1569906,11.1985648 C11.4707446,10.8618501 11.9980537,10.8432368 12.3347683,11.1569908 C12.671483,11.4707449 12.6900963,11.9980539 12.3763423,12.3347686 C11.545362,13.2265605 10.2938733,13.5936538 9.11283615,13.2920376 C7.931799,12.9904215 7.00957846,12.0682009 6.70796229,10.8871638 C6.40634613,9.70612663 6.77343947,8.45463795 7.66523134,7.62365761 C8.00194602,7.3099036 8.52925508,7.3285169 8.84300908,7.66523158 C9.15676309,8.00194626 9.13814979,8.52925532 8.80143511,8.84300933 C8.35553918,9.25849949 8.17199251,9.88424383 8.32280059,10.4747624 C8.47360867,11.065281 8.93471894,11.5263913 9.52523752,11.6771993 C10.1157561,11.8280074 10.7415004,11.6444608 11.1569906,11.1985648 Z" id="Shape"></path>
                        <path d="M0.244077682,1.42258898 L18.577411,19.7559223 C18.9028479,20.0813592 19.4304854,20.0813592 19.7559223,19.7559223 C20.0813592,19.4304854 20.0813592,18.9028479 19.7559223,18.577411 L1.42258898,0.244077682 C1.09715207,-0.0813592274 0.569514592,-0.0813592274 0.244077682,0.244077682 C-0.0813592274,0.569514592 -0.0813592274,1.09715207 0.244077682,1.42258898 Z" id="Shape"></path>
                    </g>
                </g>
            </g>
        </g>
    </g>
</svg>