<?xml version="1.0" encoding="UTF-8"?>
<svg width="20px" height="20px" viewBox="0 0 20 20" version="1.1" xmlns="http://www.w3.org/2000/svg" xmlns:xlink="http://www.w3.org/1999/xlink">
    <!-- Generator: sketchtool 55.2 (78181) - https://sketchapp.com -->
    <title>245188C6-3CE9-4BE9-952D-51FE688AC71F</title>
    <desc>Created with sketchtool.</desc>
    <g id="Page-1" stroke="none" stroke-width="1" fill="none" fill-rule="evenodd">
        <g id="create-group" transform="translate(-16.000000, -420.000000)" fill="#2A2E7C" fill-rule="nonzero">
            <g id="public" transform="translate(16.000000, 420.000000)">
                <g id="icon_earth">
                    <g id="globe" transform="translate(1.666667, 1.666667)">
                        <path d="M8.33333333,17.5 C13.3959435,17.5 17.5,13.3959435 17.5,8.33333333 C17.5,3.27072313 13.3959435,-0.833333333 8.33333333,-0.833333333 C3.27072313,-0.833333333 -0.833333333,3.27072313 -0.833333333,8.33333333 C-0.833333333,13.3959435 3.27072313,17.5 8.33333333,17.5 Z M8.33333333,15.8333333 C4.19119771,15.8333333 0.833333333,12.475469 0.833333333,8.33333333 C0.833333333,4.19119771 4.19119771,0.833333333 8.33333333,0.833333333 C12.475469,0.833333333 15.8333333,4.19119771 15.8333333,8.33333333 C15.8333333,12.475469 12.475469,15.8333333 8.33333333,15.8333333 Z" id="Oval"></path>
                        <path d="M1.11022302e-16,9.16666667 L16.6666667,9.16666667 C17.126904,9.16666667 17.5,8.79357062 17.5,8.33333333 C17.5,7.87309604 17.126904,7.5 16.6666667,7.5 L1.11022302e-16,7.5 C-0.460237292,7.5 -0.833333333,7.87309604 -0.833333333,8.33333333 C-0.833333333,8.79357062 -0.460237292,9.16666667 1.11022302e-16,9.16666667 Z" id="Shape"></path>
                        <path d="M7.7180457,-0.562019193 C8.04847924,-0.92377138 8.61818742,-0.92377138 8.94862096,-0.562019193 C11.1692566,1.86908931 12.4312391,5.02404572 12.4998192,8.35069022 C12.4312391,11.6426209 11.1692566,14.7975774 8.94862096,17.2286859 C8.61818742,17.590438 8.04847924,17.590438 7.7180457,17.2286859 C5.49741009,14.7975774 4.23542753,11.6426209 4.16684747,8.31597645 C4.23542753,5.02404572 5.49741009,1.86908931 7.7180457,-0.562019193 Z M5.83315253,8.31597665 C5.88666347,10.8845698 6.76836016,13.3581069 8.33335156,15.3743603 C9.8983202,13.3584932 10.7800036,10.8883895 10.8335141,8.35069042 C10.7800032,5.78209723 9.89830651,3.30856014 8.3333151,1.29230678 C6.76834646,3.30817386 5.88666305,5.77827753 5.83315253,8.31597665 Z" id="Shape"></path>
                    </g>
                </g>
            </g>
        </g>
    </g>
</svg>