<?xml version="1.0" encoding="UTF-8"?>
<svg width="18px" height="21px" viewBox="0 0 18 21" version="1.1" xmlns="http://www.w3.org/2000/svg" xmlns:xlink="http://www.w3.org/1999/xlink">
    <!-- Generator: sketchtool 55.2 (78181) - https://sketchapp.com -->
    <title>49B1B376-B1B4-4B5F-A81F-ACE12B0D1CB9</title>
    <desc>Created with sketchtool.</desc>
    <g id="Page-1" stroke="none" stroke-width="1" fill="none" fill-rule="evenodd">
        <g id="Services" transform="translate(-138.000000, -55.000000)" fill="#2A2E7C" fill-rule="nonzero">
            <g id="top-navigation">
                <g id="icon_services" transform="translate(135.000000, 54.000000)">
                    <path d="M12.0011667,19 L7.23723472,9.47213595 C5.92171122,6.84108895 6.98815373,3.64176142 9.61920074,2.32623792 C10.3587778,1.95644938 11.1742944,1.76393202 12.0011667,1.76393202 C14.9427667,1.76393202 17.3274047,4.14856997 17.3274047,7.09016994 C17.3274047,7.91704226 17.1348873,8.73255887 16.7650988,9.47213595 L12.0011667,19 Z M14.9762444,8.57770876 C15.2071775,8.11584255 15.3274047,7.60655207 15.3274047,7.09016994 C15.3274047,5.25313947 13.8381972,3.76393202 12.0011667,3.76393202 C11.4847846,3.76393202 10.9754941,3.8841592 10.5136279,4.1150923 C8.87053792,4.93663731 8.2045441,6.93461875 9.02608911,8.57770876 L12.0011667,14.527864 L14.9762444,8.57770876 Z M12,8 C11.4477153,8 11,7.55228475 11,7 C11,6.44771525 11.4477153,6 12,6 C12.5522847,6 13,6.44771525 13,7 C13,7.55228475 12.5522847,8 12,8 Z M15.831021,14.337958 C18.8751804,14.9162095 21,16.2087607 21,18 C21,20.4766882 16.9378352,22 12,22 C7.06216478,22 3,20.4766882 3,18 C3,16.2087607 5.12481961,14.9162095 8.168979,14.337958 L9.1088476,16.2176952 C6.67422223,16.5940397 5,17.3850043 5,18 C5,18.8370203 8.10127922,20 12,20 C15.8987208,20 19,18.8370203 19,18 C19,17.3850043 17.3257778,16.5940397 14.8911524,16.2176952 L15.831021,14.337958 Z" id="Combined-Shape"></path>
                </g>
            </g>
        </g>
    </g>
</svg>