<?xml version="1.0" encoding="UTF-8"?>
<svg width="16px" height="20px" viewBox="0 0 16 20" version="1.1" xmlns="http://www.w3.org/2000/svg" xmlns:xlink="http://www.w3.org/1999/xlink">
    <!-- Generator: sketchtool 55.2 (78181) - https://sketchapp.com -->
    <title>A91F91F9-86D4-4EC8-8AFE-A5A0B67A4AFD</title>
    <desc>Created with sketchtool.</desc>
    <g id="Page-1" stroke="none" stroke-width="1" fill="none" fill-rule="evenodd">
        <g id="Slooth-Alert-5" transform="translate(-78.000000, -660.000000)" fill="#2A2E7C">
            <g id="icon_delete" transform="translate(74.000000, 658.000000)">
                <path d="M8.72588889,4.44330556 L8.72588889,3.63730556 C8.73811111,2.79419444 9.45311111,2.04330556 10.3174444,2.01041667 C11.4118889,1.99652778 12.5065556,1.99652778 13.601,2.01041667 C14.4465556,2.04263889 15.1824444,2.77108333 15.1925556,3.63852778 L15.1925556,4.44330556 L20,4.44330556 L20,6.04330556 L19.1936667,6.04330556 C19.1997778,10.42275 19.2276667,14.8023056 19.1924444,19.1815278 C19.1704444,20.3498611 18.1438889,21.3879722 16.9631111,21.4098611 C13.6272222,21.4299722 10.2912222,21.4299722 6.95533333,21.4098611 C5.79166667,21.3883056 4.74866667,20.3825278 4.726,19.1804167 L4.72588889,6.04330556 L4,6.04330556 L4,4.44330556 L8.72588889,4.44330556 Z M17.5258889,6.04330556 L6.38666667,6.04330556 C6.354,10.4238611 6.20455556,14.8069722 6.39333333,19.18275 C6.40966667,19.4836389 6.67322222,19.7376389 6.97577778,19.7433056 C10.3053333,19.7634167 13.6381111,19.8860833 16.9645556,19.7426389 C17.2653333,19.72575 17.5234444,19.4564167 17.5258889,19.1493056 L17.5258889,6.04330556 Z M8,17.2433056 L9.6,17.2433056 L9.6,8.44330556 L8,8.44330556 L8,17.2433056 Z M11.2,17.2433056 L12.8,17.2433056 L12.8,8.44330556 L11.2,8.44330556 L11.2,17.2433056 Z M14.4,17.2433056 L16,17.2433056 L16,8.44330556 L14.4,8.44330556 L14.4,17.2433056 Z M10.3925556,4.44330556 L13.5258889,4.44330556 L13.5258889,3.67663889 L10.3925556,3.67663889 L10.3925556,4.44330556 Z" id="Fill-1"></path>
            </g>
        </g>
    </g>
</svg>