<?xml version="1.0" encoding="UTF-8"?>
<svg width="23px" height="34px" viewBox="0 0 23 34" version="1.1" xmlns="http://www.w3.org/2000/svg" xmlns:xlink="http://www.w3.org/1999/xlink">
    <!-- Generator: sketchtool 55.2 (78181) - https://sketchapp.com -->
    <title>4A8DA338-5936-42F2-9711-632ED84BDD97</title>
    <desc>Created with sketchtool.</desc>
    <g id="Page-1" stroke="none" stroke-width="1" fill="none" fill-rule="evenodd">
        <g id="Select-Pet-Gender" transform="translate(-177.000000, -438.000000)" fill="#FFFFFF">
            <g id="female" transform="translate(123.000000, 388.000000)">
                <g id="Group">
                    <g id="icon_female" transform="translate(45.000000, 45.000000)">
                        <path d="M18.9325843,27.0985674 C13.3556929,26.5244195 9,21.8061236 9,16.0786517 C9,9.96422285 13.9642228,5 20.0786517,5 C26.1930805,5 31.1573034,9.96422285 31.1573034,16.0786517 C31.1573034,21.8061236 26.8016105,26.5244195 21.2247191,27.0985674 L21.2247191,31.3595506 L26.5730337,31.3595506 L26.5730337,33.6516854 L21.2247191,33.6516854 L21.2247191,39 L18.9325843,39 L18.9325843,33.6516854 L13.5842697,33.6516854 L13.5842697,31.3595506 L18.9325843,31.3595506 L18.9325843,27.0985674 Z M20.0786517,7.29213483 C24.9281086,7.29213483 28.8651685,11.2291948 28.8651685,16.0786517 C28.8651685,20.9281086 24.9281086,24.8651685 20.0786517,24.8651685 C15.2291948,24.8651685 11.2921348,20.9281086 11.2921348,16.0786517 C11.2921348,11.2291948 15.2291948,7.29213483 20.0786517,7.29213483 Z" id="Fill-1"></path>
                    </g>
                </g>
            </g>
        </g>
    </g>
</svg>