<?xml version="1.0" encoding="UTF-8"?>
<svg width="18px" height="18px" viewBox="0 0 18 18" version="1.1" xmlns="http://www.w3.org/2000/svg" xmlns:xlink="http://www.w3.org/1999/xlink">
    <!-- Generator: sketchtool 55.2 (78181) - https://sketchapp.com -->
    <title>CC39FBA1-DD63-4D5B-B004-BC32B406A58D</title>
    <desc>Created with sketchtool.</desc>
    <g id="Page-1" stroke="none" stroke-width="1" fill="none" fill-rule="evenodd">
        <g id="Slooth-Alert-5" transform="translate(-131.000000, -661.000000)" fill="#2A2E7C">
            <g id="icon_print" transform="translate(128.000000, 658.000000)">
                <path d="M17.264227,8.22198797 C17.7613962,8.22437472 18.2584615,8.22717655 18.7556306,8.23028969 C19.9268992,8.25197793 20.9799721,9.28149469 20.9997925,10.4744515 L21,18.0053547 L17.264227,18.0053547 L17.264227,20.9939731 L6.74179986,20.9939731 L6.74179986,18.0053547 L3.00602689,18.0053547 C3.00602689,15.4950191 2.99232906,12.9846834 3.00623444,10.4744515 C3.02875285,9.31252236 4.02163828,8.25301564 5.25050005,8.23028969 C5.74756539,8.22717655 6.24473451,8.22437472 6.74179986,8.22198797 L6.74179986,3 L17.264227,3 L17.264227,8.22198797 Z M8.29837193,18.0053547 L8.29837193,19.437401 L15.707655,19.437401 L15.707655,15.0167364 L8.29837193,15.0167364 L8.29837193,16.4487827 L8.29837193,16.4487827 L8.29837193,18.0053547 Z M6.74179986,9.7496078 C6.2451496,9.75936232 5.74860311,9.77171112 5.25205662,9.78717307 C4.88844138,9.80294634 4.56986297,10.126402 4.56259896,10.4938568 L4.56259896,16.4487827 L6.74179986,16.4487827 L6.74179986,13.4601643 L17.264227,13.4601643 L17.264227,16.4487827 L19.4434279,16.4487827 C19.4434279,14.457927 19.509219,12.4659298 19.4429091,10.4762156 C19.4276547,10.1097986 19.1053405,9.7936069 18.7363291,9.78675799 C18.2456976,9.78364484 17.7549623,9.77959776 17.264227,9.77503181 L17.264227,9.78665422 L6.74179986,9.78665422 L6.74179986,9.7496078 Z M6.02577671,10.5026774 C6.43816453,10.5026774 6.7729313,10.8374441 6.7729313,11.249832 C6.7729313,11.6622198 6.43816453,11.9969866 6.02577671,11.9969866 C5.61338888,11.9969866 5.27862211,11.6622198 5.27862211,11.249832 C5.27862211,10.8374441 5.61338888,10.5026774 6.02577671,10.5026774 Z M15.707655,8.21555414 L15.707655,4.55657207 L8.29837193,4.55657207 L8.29837193,8.21555414 C10.7681329,8.20714865 13.237894,8.20714865 15.707655,8.21555414 Z" id="Fill-1"></path>
            </g>
        </g>
    </g>
</svg>