<?xml version="1.0" encoding="UTF-8"?>
<svg width="16px" height="18px" viewBox="0 0 16 18" version="1.1" xmlns="http://www.w3.org/2000/svg" xmlns:xlink="http://www.w3.org/1999/xlink">
    <!-- Generator: sketchtool 55.2 (78181) - https://sketchapp.com -->
    <title>34BAD05A-5B7E-4C05-942C-00BFA81D198A</title>
    <desc>Created with sketchtool.</desc>
    <g id="Page-1" stroke="none" stroke-width="1" fill="none" fill-rule="evenodd">
        <g id="events" transform="translate(-339.000000, -112.000000)" fill="#2A2E7C" fill-rule="nonzero">
            <g id="top-navigation">
                <g id="icon_filter" transform="translate(335.000000, 109.000000)">
                    <g id="calendar" transform="translate(4.000000, 3.000000)">
                        <path d="M2.4,1.6 L13.6,1.6 C14.9254834,1.6 16,2.6745166 16,4 L16,15.2 C16,16.5254834 14.9254834,17.6 13.6,17.6 L2.4,17.6 C1.0745166,17.6 0,16.5254834 0,15.2 L0,4 C0,2.6745166 1.0745166,1.6 2.4,1.6 Z M2.4,3.2 C1.9581722,3.2 1.6,3.5581722 1.6,4 L1.6,15.2 C1.6,15.6418278 1.9581722,16 2.4,16 L13.6,16 C14.0418278,16 14.4,15.6418278 14.4,15.2 L14.4,4 C14.4,3.5581722 14.0418278,3.2 13.6,3.2 L2.4,3.2 Z" id="Rectangle-path"></path>
                        <path d="M10.4,0.8 L10.4,4 C10.4,4.4418278 10.7581722,4.8 11.2,4.8 C11.6418278,4.8 12,4.4418278 12,4 L12,0.8 C12,0.3581722 11.6418278,0 11.2,0 C10.7581722,0 10.4,0.3581722 10.4,0.8 Z" id="Shape"></path>
                        <path d="M4,0.8 L4,4 C4,4.4418278 4.3581722,4.8 4.8,4.8 C5.2418278,4.8 5.6,4.4418278 5.6,4 L5.6,0.8 C5.6,0.3581722 5.2418278,0 4.8,0 C4.3581722,0 4,0.3581722 4,0.8 Z" id="Shape"></path>
                        <path d="M0.8,8 L15.2,8 C15.6418278,8 16,7.6418278 16,7.2 C16,6.7581722 15.6418278,6.4 15.2,6.4 L0.8,6.4 C0.3581722,6.4 0,6.7581722 0,7.2 C0,7.6418278 0.3581722,8 0.8,8 Z" id="Shape"></path>
                    </g>
                </g>
            </g>
        </g>
    </g>
</svg>