<?xml version="1.0" encoding="UTF-8"?>
<svg width="21px" height="19px" viewBox="0 0 21 19" version="1.1" xmlns="http://www.w3.org/2000/svg" xmlns:xlink="http://www.w3.org/1999/xlink">
    <!-- Generator: sketchtool 55.2 (78181) - https://sketchapp.com -->
    <title>47CF16AF-00EA-4F4B-9A5E-6602DADB64A1</title>
    <desc>Created with sketchtool.</desc>
    <g id="Page-1" stroke="none" stroke-width="1" fill="none" fill-rule="evenodd">
        <g id="Slooth-Alert-2" transform="translate(-115.000000, -526.000000)" fill="#2A2E7C">
            <g id="upload-photo" transform="translate(16.000000, 508.000000)">
                <g id="Group" transform="translate(97.000000, 15.000000)">
                    <g id="icon_photo_small">
                        <path d="M14.793225,3.00870065 C15.946425,3.03050065 16.888125,4.05120065 16.956425,5.24330065 C16.980625,5.58760065 17.288325,5.88190065 17.635925,5.88850065 C18.950825,5.89700065 20.341725,5.80880065 21.256625,6.62100065 C21.860325,7.15690065 22.219425,7.94900065 22.234825,8.75930065 C22.254625,11.9054006 22.254625,15.0517006 22.234825,18.1978006 C22.206525,19.6936006 20.928525,21.0385006 19.364325,21.0683006 C14.538225,21.0987006 9.711825,21.0987006 4.885725,21.0683006 C3.386125,21.0397006 2.044525,19.7424006 2.015225,18.1978006 C1.994925,14.9717006 1.994925,11.7454006 2.015225,8.51930065 C2.043525,7.02510065 3.316725,5.67850065 4.885825,5.64880065 C5.498125,5.64490065 6.110325,5.64860065 6.722625,5.64850065 C7.431425,5.64850065 7.171825,4.38030065 7.865525,3.65150065 C8.239325,3.25880065 8.768225,3.02600065 9.313625,3.00920065 L9.339225,3.00870065 C11.157225,2.99730065 12.975225,2.99690065 14.793225,3.00870065 Z M9.367325,4.50850065 C8.839525,4.51180065 8.870125,5.30210065 8.641825,5.86110065 C8.337925,6.60520065 7.578725,7.13280065 6.751625,7.14840065 C5.324225,7.15760065 3.563825,6.99280065 3.515525,8.51990065 C3.454425,11.7451006 3.454425,14.9720006 3.515525,18.1972006 C3.538325,18.9167006 4.175425,19.5545006 4.904825,19.5684006 C9.724325,19.5988006 14.544825,19.6600006 19.363625,19.5681006 C20.080425,19.5454006 20.711725,18.9175006 20.734525,18.1972006 C20.794125,15.0520006 20.794125,11.9051006 20.734525,8.75990065 C20.711925,8.04410065 20.084225,7.41190065 19.363625,7.38900065 C18.206725,7.36710065 16.957625,7.53340065 16.172325,6.81940065 C15.696825,6.38730065 15.542425,5.74140065 15.447025,5.09270065 C15.396225,4.77300065 15.101325,4.51480065 14.774125,4.50860065 C12.971925,4.49690065 11.169625,4.50850065 9.367325,4.50850065 Z M12.125025,8.55850065 C14.774225,8.55850065 16.925025,10.7094006 16.925025,13.3585006 C16.925025,16.0077006 14.774225,18.1585006 12.125025,18.1585006 C9.475825,18.1585006 7.325025,16.0077006 7.325025,13.3585006 C7.325025,10.7094006 9.475825,8.55850065 12.125025,8.55850065 Z M12.125025,9.99850065 C13.979425,9.99850065 15.485025,11.5041006 15.485025,13.3585006 C15.485025,15.2130006 13.979425,16.7185006 12.125025,16.7185006 C10.270625,16.7185006 8.765025,15.2130006 8.765025,13.3585006 C8.765025,11.5041006 10.270625,9.99850065 12.125025,9.99850065 Z" id="Fill-1"></path>
                    </g>
                </g>
            </g>
        </g>
    </g>
</svg>