<?xml version="1.0" encoding="UTF-8"?>
<svg width="20px" height="20px" viewBox="0 0 20 20" version="1.1" xmlns="http://www.w3.org/2000/svg" xmlns:xlink="http://www.w3.org/1999/xlink">
    <!-- Generator: sketchtool 55.2 (78181) - https://sketchapp.com -->
    <title>EED5ABC9-01B7-43B7-AF28-C2CBAC44F22A</title>
    <desc>Created with sketchtool.</desc>
    <g id="Page-1" stroke="none" stroke-width="1" fill="none" fill-rule="evenodd">
        <g id="Slooth-Alert-5" transform="translate(-22.000000, -660.000000)" fill="#2A2E7C">
            <g id="icon_edit" transform="translate(20.000000, 658.000000)">
                <path d="M3.88881623,15.2338192 C7.97526784,11.1408505 12.0410248,7.02707274 16.1583469,2.96531751 C16.3601484,2.77071913 16.4209747,2.72818646 16.5625216,2.62688555 C17.8936111,1.67413097 19.8514857,1.80698838 21.0573782,3.02820183 C22.3035167,4.32270408 22.3346159,6.56950358 21.0282228,7.8938473 L8.81803203,20.1039237 L8.8182607,20.1044954 L8.81711735,20.1048384 L7.91661392,21.0053418 L2,21.7771039 L3.03416118,16.0891602 C3.30845114,15.8147559 3.5827411,15.5403516 3.85691673,15.2657187 L3.86972226,15.2274164 L3.88881623,15.2338192 Z M6.70969237,19.4332339 C6.41482209,18.778208 6.02310996,18.1549672 5.44697528,17.7471338 C5.17302832,17.5532215 4.87198394,17.4034425 4.56099241,17.2788172 L4.10753931,19.7725805 L6.70969237,19.4332339 Z M18.1867663,8.35507519 L15.6901446,5.85856779 L5.64751908,15.9011933 C6.12932729,16.1327219 6.58483842,16.417645 6.98832706,16.8013537 C7.0183972,16.8305092 7.04823867,16.8597789 7.07773713,16.8895061 C7.50443581,17.3250086 7.83795136,17.8394023 8.11201265,18.3871819 C11.4715216,15.0443659 14.8679607,11.7379085 18.1867663,8.35507519 Z M19.3365203,7.17650874 C19.5064223,7.00134734 19.6759813,6.82595726 19.8454259,6.65033851 C20.4710677,5.98353608 20.446257,4.83423942 19.7971765,4.19327673 C19.1423793,3.5629472 18.0149206,3.54293855 17.3373707,4.21134168 L16.8544191,4.69429323 L19.3365203,7.17650874 Z" id="Fill-1"></path>
            </g>
        </g>
    </g>
</svg>