<?xml version="1.0" encoding="UTF-8"?>
<svg width="16px" height="16px" viewBox="0 0 16 16" version="1.1" xmlns="http://www.w3.org/2000/svg" xmlns:xlink="http://www.w3.org/1999/xlink">
    <!-- Generator: sketchtool 55.2 (78181) - https://sketchapp.com -->
    <title>3A14A277-B7D8-4A16-9D44-3808AC7B8674</title>
    <desc>Created with sketchtool.</desc>
    <g id="Page-1" stroke="none" stroke-width="1" fill="none" fill-rule="evenodd">
        <g id="group-details" transform="translate(-31.000000, -398.000000)" fill="#A2A2A2" fill-rule="nonzero">
            <g id="info" transform="translate(31.000000, 398.000000)">
                <g id="public">
                    <g id="icon_earth">
                        <g id="globe" transform="translate(0.666667, 0.666667)">
                            <path d="M7.33333333,14.6666667 C11.3834215,14.6666667 14.6666667,11.3834215 14.6666667,7.33333333 C14.6666667,3.28324517 11.3834215,0 7.33333333,0 C3.28324517,0 0,3.28324517 0,7.33333333 C0,11.3834215 3.28324517,14.6666667 7.33333333,14.6666667 Z M7.33333333,13.3333333 C4.01962483,13.3333333 1.33333333,10.6470418 1.33333333,7.33333333 C1.33333333,4.01962483 4.01962483,1.33333333 7.33333333,1.33333333 C10.6470418,1.33333333 13.3333333,4.01962483 13.3333333,7.33333333 C13.3333333,10.6470418 10.6470418,13.3333333 7.33333333,13.3333333 Z" id="Oval"></path>
                            <path d="M0.666666667,8 L14,8 C14.3681898,8 14.6666667,7.70152317 14.6666667,7.33333333 C14.6666667,6.9651435 14.3681898,6.66666667 14,6.66666667 L0.666666667,6.66666667 C0.298476833,6.66666667 0,6.9651435 0,7.33333333 C0,7.70152317 0.298476833,8 0.666666667,8 Z" id="Shape"></path>
                            <path d="M6.84110323,0.217051313 C7.10545006,-0.0723504375 7.5612166,-0.0723504375 7.82556344,0.217051313 C9.60207193,2.16193812 10.611658,4.68590324 10.666522,7.34721884 C10.611658,9.98076342 9.60207193,12.5047285 7.82556344,14.4496154 C7.5612166,14.7390171 7.10545006,14.7390171 6.84110323,14.4496154 C5.06459474,12.5047285 4.05500869,9.98076342 4.00014464,7.31944783 C4.05500869,4.68590324 5.06459474,2.16193812 6.84110323,0.217051313 Z M5.33318869,7.31944799 C5.37599744,9.37432254 6.08135479,11.3531522 7.33334792,12.9661549 C8.58532283,11.3534612 9.29066956,9.3773783 9.33347797,7.347219 C9.29066923,5.29234445 8.58531187,3.31351478 7.33331875,1.70051209 C6.08134384,3.31320575 5.37599711,5.28928869 5.33318869,7.31944799 Z" id="Shape"></path>
                        </g>
                    </g>
                </g>
            </g>
        </g>
    </g>
</svg>