<?xml version="1.0" encoding="UTF-8"?>
<svg width="34px" height="31px" viewBox="0 0 34 31" version="1.1" xmlns="http://www.w3.org/2000/svg" xmlns:xlink="http://www.w3.org/1999/xlink">
    <!-- Generator: sketchtool 55.2 (78181) - https://sketchapp.com -->
    <title>0513F1FF-501A-42FF-B2F3-98C47384AD34</title>
    <desc>Created with sketchtool.</desc>
    <g id="Page-1" stroke="none" stroke-width="1" fill="none" fill-rule="evenodd">
        <g id="Add-Pet-Profile-Details" transform="translate(-170.000000, -455.000000)" fill="#FFFFFF">
            <g id="button" transform="translate(122.000000, 405.000000)">
                <g id="icon_photo_white" transform="translate(45.000000, 45.000000)">
                    <path d="M24.4803275,5.01460873 C26.4165956,5.05121178 27.9977469,6.76500719 28.1124253,8.76658993 C28.153058,9.34468316 28.6696984,9.83882442 29.2533325,9.84990608 C31.4611012,9.86417792 33.796477,9.71608665 35.33263,11.0798024 C36.3462661,11.9795995 36.9492091,13.3095665 36.9750663,14.6700921 C37.0083112,19.9525176 37.0083112,25.2352789 36.9750663,30.5177045 C36.9275495,33.0292114 34.7817372,35.2873514 32.155384,35.3373867 C24.0521724,35.3884295 15.9484572,35.3884295 7.84524566,35.3373867 C5.32735834,35.2893662 3.07475922,33.1111485 3.02556337,30.5177045 C2.99147888,25.1009558 2.99147888,19.6838713 3.02556337,14.2671227 C3.07308019,11.7583021 5.21083301,9.49730783 7.84541357,9.44744037 C8.87348933,9.44089211 9.90139718,9.44710456 10.9294729,9.44693665 C12.119576,9.44693665 11.6836974,7.31757902 12.848447,6.09389518 C13.4760718,5.43453645 14.3641157,5.04365611 15.2798638,5.01544825 L15.3228472,5.01460873 C18.3753406,4.99546768 21.427834,4.99479606 24.4803275,5.01460873 Z M15.3700282,7.53283186 C14.4838312,7.53837269 14.5352098,8.86531744 14.1518852,9.80390041 C13.6416251,11.0532735 12.3668985,11.9391347 10.9781651,11.9653277 C8.58150439,11.9807749 5.62572362,11.7040692 5.54462602,14.2681301 C5.44203672,19.6833676 5.44203672,25.1014595 5.54462602,30.516697 C5.58290812,31.7247658 6.65262405,32.7956571 7.87731531,32.8189957 C15.9694452,32.8700385 24.0632541,32.9727957 32.1542086,32.818492 C33.357744,32.7803778 34.4177215,31.726109 34.4560036,30.516697 C34.5560744,25.2357826 34.5560744,19.9520139 34.4560036,14.6710995 C34.4180573,13.4692432 33.3641244,12.4077545 32.1542086,12.3693045 C30.2117281,12.3325336 28.1144401,12.6117578 26.7958906,11.4129238 C25.9975074,10.6874109 25.7382637,9.6029194 25.5780834,8.51372661 C25.4927882,7.97693775 24.9976395,7.54340981 24.4482578,7.53299976 C21.4222932,7.513355 18.3961607,7.53283186 15.3700282,7.53283186 Z M20.0003148,14.332941 C24.4484257,14.332941 28.0597034,17.9443866 28.0597034,22.3923296 C28.0597034,26.8404405 24.4484257,30.4517182 20.0003148,30.4517182 C15.5522039,30.4517182 11.9409262,26.8404405 11.9409262,22.3923296 C11.9409262,17.9443866 15.5522039,14.332941 20.0003148,14.332941 Z M20.0003148,16.7507576 C23.1139253,16.7507576 25.6418868,19.2787191 25.6418868,22.3923296 C25.6418868,25.506108 23.1139253,28.0339016 20.0003148,28.0339016 C16.8867044,28.0339016 14.3587428,25.506108 14.3587428,22.3923296 C14.3587428,19.2787191 16.8867044,16.7507576 20.0003148,16.7507576 Z" id="Fill-1"></path>
                </g>
            </g>
        </g>
    </g>
</svg>