<?xml version="1.0" encoding="UTF-8"?>
<svg width="28px" height="28px" viewBox="0 0 28 28" version="1.1" xmlns="http://www.w3.org/2000/svg" xmlns:xlink="http://www.w3.org/1999/xlink">
    <!-- Generator: sketchtool 55.2 (78181) - https://sketchapp.com -->
    <title>E19EF617-C0F4-494F-84DB-45FD3F753F1D</title>
    <desc>Created with sketchtool.</desc>
    <g id="Page-1" stroke="none" stroke-width="1" fill="none" fill-rule="evenodd">
        <g id="Select-Pet-Gender" transform="translate(-175.000000, -219.000000)" fill="#FFFFFF">
            <g id="male" transform="translate(122.000000, 168.000000)">
                <g id="Group">
                    <g id="icon_male" transform="translate(45.000000, 45.000000)">
                        <path d="M27.3239437,6 L36,6 L36,14.6760563 L33.6338028,14.6760563 L33.6338028,10.0392958 L28.4897887,15.1833099 C29.9839437,17.1160329 30.8732394,19.5394131 30.8732394,22.1690141 C30.8732394,28.4810094 25.748615,33.6056338 19.4366197,33.6056338 C13.1246244,33.6056338 8,28.4810094 8,22.1690141 C8,15.8570188 13.1246244,10.7323944 19.4366197,10.7323944 C22.2675117,10.7323944 24.8594836,11.763169 26.8574413,13.4694601 L31.9607042,8.36619718 L27.3239437,8.36619718 L27.3239437,6 Z M19.4366197,13.0985915 C24.44277,13.0985915 28.5070423,17.1628638 28.5070423,22.1690141 C28.5070423,27.1751643 24.44277,31.2394366 19.4366197,31.2394366 C14.4304695,31.2394366 10.3661972,27.1751643 10.3661972,22.1690141 C10.3661972,17.1628638 14.4304695,13.0985915 19.4366197,13.0985915 Z" id="Fill-1"></path>
                    </g>
                </g>
            </g>
        </g>
    </g>
</svg>