<?xml version="1.0" encoding="UTF-8"?>
<svg width="18px" height="20px" viewBox="0 0 18 20" version="1.1" xmlns="http://www.w3.org/2000/svg" xmlns:xlink="http://www.w3.org/1999/xlink">
    <!-- Generator: sketchtool 55.2 (78181) - https://sketchapp.com -->
    <title>DD688F21-6FF8-43C1-9860-1102F5516962</title>
    <desc>Created with sketchtool.</desc>
    <g id="Page-1" stroke="none" stroke-width="1" fill="none" fill-rule="evenodd">
        <g id="create-group" transform="translate(-122.000000, -420.000000)" fill="#A2A2A2" fill-rule="nonzero">
            <g id="closed" transform="translate(121.000000, 420.000000)">
                <g id="icon_closed">
                    <g id="lock" transform="translate(1.666667, 0.833333)">
                        <path d="M2.5,7.5 L14.1666667,7.5 C15.5473785,7.5 16.6666667,8.61928813 16.6666667,10 L16.6666667,15.8333333 C16.6666667,17.2140452 15.5473785,18.3333333 14.1666667,18.3333333 L2.5,18.3333333 C1.11928813,18.3333333 0,17.2140452 0,15.8333333 L0,10 C0,8.61928813 1.11928813,7.5 2.5,7.5 Z M2.5,9.16666667 C2.03976271,9.16666667 1.66666667,9.53976271 1.66666667,10 L1.66666667,15.8333333 C1.66666667,16.2935706 2.03976271,16.6666667 2.5,16.6666667 L14.1666667,16.6666667 C14.626904,16.6666667 15,16.2935706 15,15.8333333 L15,10 C15,9.53976271 14.626904,9.16666667 14.1666667,9.16666667 L2.5,9.16666667 Z" id="Rectangle-path"></path>
                        <path d="M5,8.33333333 L5,5 C5,3.15905083 6.49238417,1.66666667 8.33333333,1.66666667 C10.1742825,1.66666667 11.6666667,3.15905083 11.6666667,5 L11.6666667,8.33333333 C11.6666667,8.79357062 12.0397627,9.16666667 12.5,9.16666667 C12.9602373,9.16666667 13.3333333,8.79357062 13.3333333,8.33333333 L13.3333333,5 C13.3333333,2.23857625 11.0947571,0 8.33333333,0 C5.57190958,0 3.33333333,2.23857625 3.33333333,5 L3.33333333,8.33333333 C3.33333333,8.79357062 3.70642938,9.16666667 4.16666667,9.16666667 C4.62690396,9.16666667 5,8.79357062 5,8.33333333 Z" id="Shape"></path>
                    </g>
                </g>
            </g>
        </g>
    </g>
</svg>