<?xml version="1.0" encoding="UTF-8"?>
<svg width="18px" height="20px" viewBox="0 0 18 20" version="1.1" xmlns="http://www.w3.org/2000/svg" xmlns:xlink="http://www.w3.org/1999/xlink">
    <!-- Generator: sketchtool 55.2 (78181) - https://sketchapp.com -->
    <title>3B2C5CAE-BFBC-4DED-BFD6-BD179C48B256</title>
    <desc>Created with sketchtool.</desc>
    <g id="Page-1" stroke="none" stroke-width="1" fill="none" fill-rule="evenodd">
        <g id="Menu" transform="translate(-20.000000, -746.000000)" fill="#2A2E7C">
            <g id="menu-item" transform="translate(16.000000, 744.000000)">
                <g id="user-profile">
                    <g id="icon_user_white">
                        <path d="M17.8437002,22 L4,22 L4,2 L17.8437002,2 L17.8437002,6.6092504 L16.2488038,8.20414673 L16.2488038,3.59489633 L5.59489633,3.59489633 L5.59489633,20.4051037 L16.2488038,20.4051037 L16.2488038,15.7958533 L17.8437002,17.3907496 L17.8437002,22 Z M20.5550239,10.8376396 L20.5569378,10.8357257 L21.6395534,11.9183413 L21.6376396,11.9202552 L21.6395534,11.9221691 L20.5569378,13.0047847 L20.5550239,13.0028708 L18.1288676,15.4290271 L17.046252,14.3464115 L18.6430622,12.7496013 L9.3907496,12.7496013 L9.3907496,11.2185008 L18.7706539,11.2185008 L17.046252,9.49409888 L18.1288676,8.41148325 L20.5550239,10.8376396 Z" id="Fill-1"></path>
                    </g>
                </g>
            </g>
        </g>
    </g>
</svg>