<?xml version="1.0" encoding="UTF-8"?>
<svg width="22px" height="19px" viewBox="0 0 22 19" version="1.1" xmlns="http://www.w3.org/2000/svg" xmlns:xlink="http://www.w3.org/1999/xlink">
    <!-- Generator: sketchtool 55.2 (78181) - https://sketchapp.com -->
    <title>AF802A6F-85A5-45FD-A668-E0D37D90C8B7</title>
    <desc>Created with sketchtool.</desc>
    <g id="Page-1" stroke="none" stroke-width="1" fill="none" fill-rule="evenodd">
        <g id="Kingdom-Cafe-1" transform="translate(-72.000000, -57.000000)" fill="#2A2E7C">
            <g id="top-navigation">
                <g id="icon_kingdom" transform="translate(71.000000, 54.000000)">
                    <path d="M10.8637698,7.42248016 C10.1361111,7.02100198 9.64285714,6.2462004 9.64285714,5.35714286 C9.64285714,4.05624008 10.6990972,3 12,3 C13.3009028,3 14.3571429,4.05624008 14.3571429,5.35714286 C14.3571429,6.2462004 13.8638889,7.02100198 13.1362302,7.42248016 L15.658373,12.0786012 L19.1294841,9.52088294 C18.61375,9.0884127 18.2857143,8.4393254 18.2857143,7.71428571 C18.2857143,6.41338294 19.3419544,5.35714286 20.6428571,5.35714286 C21.9437599,5.35714286 23,6.41338294 23,7.71428571 C23,8.86633929 22.1716171,9.82654762 21.0786012,10.0311607 L19.8571429,17.8481448 L19.8571429,21.8571429 L18.2857143,21.8571429 L5.71428571,21.8571429 L4.14285714,21.8571429 L4.14285714,17.848254 L2.92139881,10.0311607 C1.82838294,9.82654762 1,8.86633929 1,7.71428571 C1,6.41338294 2.05624008,5.35714286 3.35714286,5.35714286 C4.65804563,5.35714286 5.71428571,6.41338294 5.71428571,7.71428571 C5.71428571,8.4393254 5.38625,9.0884127 4.87051587,9.52088294 L8.34162698,12.0786012 L10.8637698,7.42248016 Z M5.71428571,20.2857143 L18.2857143,20.2857143 L18.2857143,18.7142857 L5.71428571,18.7142857 L5.71428571,20.2857143 Z M18.4210317,17.1428571 L19.3396627,11.26375 L15.8578571,13.8292163 C15.487371,14.077371 14.969127,13.9706448 14.7330853,13.5781151 L12,8.53241071 C11.0890079,10.2142758 10.1779067,11.89625 9.26691468,13.5781151 C9.03709325,13.9602778 8.52266865,14.0841369 8.14214286,13.8292163 L4.6603373,11.26375 L5.57896825,17.1428571 L18.4210317,17.1428571 Z M20.6428571,6.92857143 C21.0765278,6.92857143 21.4285714,7.28061508 21.4285714,7.71428571 C21.4285714,8.14795635 21.0765278,8.5 20.6428571,8.5 C20.2091865,8.5 19.8571429,8.14795635 19.8571429,7.71428571 C19.8571429,7.28061508 20.2091865,6.92857143 20.6428571,6.92857143 Z M3.35714286,6.92857143 C3.79081349,6.92857143 4.14285714,7.28061508 4.14285714,7.71428571 C4.14285714,8.14795635 3.79081349,8.5 3.35714286,8.5 C2.92347222,8.5 2.57142857,8.14795635 2.57142857,7.71428571 C2.57142857,7.28061508 2.92347222,6.92857143 3.35714286,6.92857143 Z M12,4.57142857 C12.4336706,4.57142857 12.7857143,4.92347222 12.7857143,5.35714286 C12.7857143,5.79081349 12.4336706,6.14285714 12,6.14285714 C11.5663294,6.14285714 11.2142857,5.79081349 11.2142857,5.35714286 C11.2142857,4.92347222 11.5663294,4.57142857 12,4.57142857 Z" id="Fill-1"></path>
                </g>
            </g>
        </g>
    </g>
</svg>