<?xml version="1.0" encoding="UTF-8"?>
<svg width="29px" height="34px" viewBox="0 0 29 34" version="1.1" xmlns="http://www.w3.org/2000/svg" xmlns:xlink="http://www.w3.org/1999/xlink">
    <!-- Generator: sketchtool 55.2 (78181) - https://sketchapp.com -->
    <title>0ED869A4-8220-407E-8652-B72B8F3E551C</title>
    <desc>Created with sketchtool.</desc>
    <g id="Page-1" stroke="none" stroke-width="1" fill="none" fill-rule="evenodd">
        <g id="missing-pets" transform="translate(-266.000000, -165.000000)">
            <g id="missing-pet" transform="translate(260.000000, 161.000000)">
                <path d="M33.9998234,18.0857864 L34.0710678,18.0857864 L34.0710678,32.0857864 L20.0710678,32.0857864 L20.0710678,32.014542 C20.0473924,32.0146597 20.0237031,32.0147186 20,32.0147186 C12.2680135,32.0147186 6,25.7467051 6,18.0147186 C6,10.2827321 12.2680135,4.01471863 20,4.01471863 C27.7319865,4.01471863 34,10.2827321 34,18.0147186 C34,18.0384217 33.9999411,18.062111 33.9998234,18.0857864 Z" id="Combined-Shape" fill="#2A2E7C" transform="translate(20.035534, 18.050253) rotate(-315.000000) translate(-20.035534, -18.050253) "></path>
                <g id="Group-6" transform="translate(13.000000, 11.000000)" fill="#FFFFFF">
                    <path d="M6.588,2.99633333 C4.60744444,2.99633333 2.99555556,4.608 2.99555556,6.58922222 C2.99555556,8.57073333 4.60744444,10.1819667 6.588,10.1819667 C8.56844444,10.1819667 10.1796667,8.57073333 10.1796667,6.58922222 C10.1796667,4.608 8.56844444,2.99633333 6.588,2.99633333 Z" id="Fill-1"></path>
                    <path d="M11.0845556,16.8167333 C11.5433333,16.6198444 11.8861111,16.4041889 12.0948889,16.2255111 L10.302,12.9221778 L8.80855556,13.5610778 L9.95944444,17.1391889 C10.2327778,17.1116333 10.6256667,17.0126222 11.0845556,16.8167333 Z" id="Fill-2"></path>
                    <path d="M11.1857778,17.0526222 C10.7976667,17.2188556 10.3906667,17.3434111 10.0475556,17.3950778 L10.1066667,17.5673 C10.2808889,17.9744111 10.8681111,18.1139667 11.418,17.8782889 L11.6221111,17.7908444 C12.1725556,17.5554111 12.4773333,17.0351889 12.3032222,16.6280778 L12.2191111,16.4659667 C11.9447778,16.6784111 11.5735556,16.8867444 11.1857778,17.0526222 Z" id="Fill-3"></path>
                    <path d="M10.2947778,12.5410667 C10.3413333,12.6496333 10.2597778,12.7889667 10.1127778,12.8516333 L8.88811111,13.3759667 C8.74133333,13.4386222 8.58433333,13.4010778 8.53777778,13.2926333 C8.49133333,13.1840667 8.57255556,13.0447444 8.71955556,12.9820667 L9.94433333,12.4577333 C10.091,12.3950778 10.2481111,12.4325222 10.2947778,12.5410667 Z" id="Fill-4"></path>
                    <path d="M6.588,11.9770778 C3.61733333,11.9770778 1.20044444,9.56028889 1.20044444,6.58922222 C1.20044444,3.61811111 3.61733333,1.20033333 6.588,1.20033333 C9.55966667,1.20033333 11.9765556,3.61811111 11.9765556,6.58922222 C11.9765556,9.56028889 9.55966667,11.9770778 6.588,11.9770778 Z M6.588,0 C2.95522222,0 0,2.956 0,6.58922222 C0,10.2218556 2.95522222,13.1776222 6.588,13.1776222 C10.2213333,13.1776222 13.1773333,10.2218556 13.1773333,6.58922222 C13.1773333,2.956 10.2213333,0 6.588,0 Z" id="Fill-5"></path>
                </g>
            </g>
        </g>
    </g>
</svg>