<?xml version="1.0" encoding="UTF-8"?>
<svg width="21px" height="19px" viewBox="0 0 21 19" version="1.1" xmlns="http://www.w3.org/2000/svg" xmlns:xlink="http://www.w3.org/1999/xlink">
    <!-- Generator: sketchtool 55.2 (78181) - https://sketchapp.com -->
    <title>F8BE7A30-4654-42A8-9B8C-216FDABB7B6D</title>
    <desc>Created with sketchtool.</desc>
    <g id="Page-1" stroke="none" stroke-width="1" fill="none" fill-rule="evenodd">
        <g id="Slooth-Alert-4" transform="translate(-120.000000, -57.000000)" fill="#2A2E7C">
            <g id="top-navigation">
                <g id="icon_slooth_alert" transform="translate(118.000000, 54.000000)">
                    <path d="M8.0643,20.492 L3.5976,20.492 L2.3976,15.452 L2,15.452 L2,8.192 L8.4966,8.192 C12.4009,8.0525 16.2324,6.8518 19.2821,4.2734 L20.78,3 L20.78,9.9706 C21.5925,10.1942 22.19,10.9389 22.19,11.822 C22.19,12.7051 21.5925,13.4498 20.78,13.6734 L20.78,21.2439 L20.1054,20.3585 C19.486,19.5784 18.9064,19.0546 18.5332,18.7548 C15.7532,16.6393 12.2711,15.4622 8.7713,15.452 L6.6243,15.452 L8.0643,20.492 Z M5.0643,15.452 L3.9396,15.452 L4.7824,18.992 L6.0757,18.992 L5.0643,15.452 Z M9.23,13.9493 C10.4177,14.0076 11.6017,14.1394 12.7739,14.4135 C15.1195,14.9619 17.3482,16.0062 19.2778,17.4365 C19.2778,17.4365 19.28,6.1873 19.28,6.1873 C19.2596,6.2023 19.2393,6.2172 19.2189,6.2322 C16.3443,8.3211 12.8428,9.5284 9.3069,9.664 L9.23,9.6668 L9.23,13.9493 Z M7.79,9.692 L3.5,9.692 L3.5,13.952 C4.9214,13.952 6.3561,13.8978 7.79,13.9101 L7.79,9.692 Z" id="Fill-1"></path>
                </g>
            </g>
        </g>
    </g>
</svg>